PathFileType	4	(X/Y/Z)	..\data\2015035\dynamic\2015035_C5_03.trc
DataRate	CameraRate	NumFrames	NumMarkers	Units	OrigDataRate	OrigDataStartFrame	OrigNumFrames
100.000000	100.000000	4	52	mm	100.000000	80	161
Frame#	Time	L_IAS			L_IPS			R_IPS			R_IAS			L_FTC			L_FLE			L_FME			L_FAX			L_TTC			L_FAL			L_TAM			L_FCC			L_FM1			L_FM2			L_FM5			R_FTC			R_FLE			R_FME			R_FAX			R_TTC			R_FAL			R_TAM			R_FCC			R_FM1			R_FM2			R_FM5			CV7			TV10			SXS			SJN			L_SIA			L_SRS			L_SAA			L_SAE			L_HLE			L_HME			L_UOA			L_RSP			L_UHE			L_HM2			L_HM5			R_SIA			R_SRS			R_SAA			R_SAE			R_HLE			R_HME			R_UOA			R_RSP			R_UHE			R_HM2			R_HM5			
		X1	Y1	Z1	X2	Y2	Z2	X3	Y3	Z3	X4	Y4	Z4	X5	Y5	Z5	X6	Y6	Z6	X7	Y7	Z7	X8	Y8	Z8	X9	Y9	Z9	X10	Y10	Z10	X11	Y11	Z11	X12	Y12	Z12	X13	Y13	Z13	X14	Y14	Z14	X15	Y15	Z15	X16	Y16	Z16	X17	Y17	Z17	X18	Y18	Z18	X19	Y19	Z19	X20	Y20	Z20	X21	Y21	Z21	X22	Y22	Z22	X23	Y23	Z23	X24	Y24	Z24	X25	Y25	Z25	X26	Y26	Z26	X27	Y27	Z27	X28	Y28	Z28	X29	Y29	Z29	X30	Y30	Z30	X31	Y31	Z31	X32	Y32	Z32	X33	Y33	Z33	X34	Y34	Z34	X35	Y35	Z35	X36	Y36	Z36	X37	Y37	Z37	X38	Y38	Z38	X39	Y39	Z39	X40	Y40	Z40	X41	Y41	Z41	X42	Y42	Z42	X43	Y43	Z43	X44	Y44	Z44	X45	Y45	Z45	X46	Y46	Z46	X47	Y47	Z47	X48	Y48	Z48	X49	Y49	Z49	X50	Y50	Z50	X51	Y51	Z51	X52	Y52	Z52	

81	0.8	-93.64589691162112	981.794128417969	121.9208602905274	-290.0804748535157	1002.644714355469	208.6317291259766	-289.0150451660157	990.8946533203127	292.9471130371094	-110.0110626220704	972.566101074219	387.2870178222657	-182.2136535644532	913.3992919921877	67.02339935302733	-154.587646484375	469.4747314453126	105.0143432617188	-178.4725036621094	480.5046386718751	242.4114532470703	-169.4851684570313	419.9909057617189	103.2802505493164	-112.2976608276368	393.5834960937501	164.8656921386719	-226.5794067382813	62.68645095825197	145.8420562744141	-208.2995147705079	77.47362518310548	242.1039581298828	-276.1266174316407	25.02613830566407	196.0494995117188	-81.87062835693364	18.37566566467286	229.4413452148438	-62.09996032714847	31.40617179870606	172.9284057617188	-121.6329345703125	18.01286506652832	118.8048858642578	-184.8692474365235	877.222595214844	436.309295654297	-67.99655151367195	477.6715698242189	417.2677001953126	-33.58715820312504	479.4972229003907	295.2751770019532	-105.8387756347657	453.6604614257814	411.3968505859376	-54.66284942626959	397.1227111816407	376.5625305175782	-363.3343200683595	211.9065093994141	356.625	-301.7911376953126	190.5992126464844	285.1034240722656	-405.4109802246095	200.3877716064454	299.5377807617188	-278.7139892578126	61.34420776367189	311.822509765625	-272.8486633300782	74.58510589599611	362.3843994140625	-328.2794494628907	99.39507293701175	401.7399902343751	-257.2371215820314	1505.583129882813	238.5383605957032	-311.9627685546876	1216.124755859375	250.9328765869141	-63.96786117553715	1250.762573242188	244.9412689208985	-115.5606231689454	1419.802368164063	240.8982086181641	-320.8245849609376	1291.97607421875	127.4296798706055	-295.4649353027344	1437.1640625	147.1966094970703	-219.8816833496094	1431.632446289063	51.39181900024413	-173.0955047607422	1433.152587890625	46.23076248168944	-165.4036712646485	1130.348388671875	-46.13391876220706	-204.959701538086	1105.268188476563	36.26707077026365	-207.1563568115235	1091.280639648438	-19.30731582641604	-10.90682601928711	903.847595214844	-2.840119361877443	-55.09641265869141	891.0344238281252	-66.42563629150392	41.23753356933594	830.483581542969	-5.657867431640621	-43.72225952148438	811.098571777344	-69.95751190185548	-317.3746032714845	1297.262817382813	376.1549377441406	-287.6857910156251	1440.0751953125	344.12451171875	-211.875701904297	1433.288208007813	442.0224609375001	-160.0081787109376	1430.078002929688	449.598602294922	-191.2378234863282	1130.357299804688	534.6998901367189	-249.9232330322267	1126.225708007813	461.7718811035157	-242.0187835693361	1107.44482421875	523.9694213867189	-103.6072387695313	872.879577636719	476.4599914550782	-144.0547485351563	869.6691894531252	543.4087524414064	-81.78293609619148	782.6954345703127	474.6430053710939	-150.6961212158204	802.637634277344	553.0031738281251	
82	0.8100000000000001	-79.95452880859378	982.807800292969	121.4452819824219	-275.9274291992188	1003.671447753906	209.0195922851563	-274.7092895507814	992.1807250976565	293.5396423339844	-95.27676391601568	974.5672607421877	386.6684570312501	-168.8814849853516	914.2497558593752	67.23152923583984	-152.8626708984375	470.224578857422	105.2548904418945	-176.3508453369141	481.4273681640626	242.9841003417969	-168.3441314697266	420.8461914062501	103.6430740356445	-111.3124160766602	393.7778320312501	165.2918548583985	-226.3756713867188	63.3379249572754	146.26220703125	-207.6869049072266	78.22934722900392	242.3948974609375	-275.8096313476563	25.8522071838379	196.611572265625	-81.46313476562504	18.27434539794922	229.4028930664063	-61.7275543212891	31.24611282348634	172.8711853027344	-121.4584884643555	18.13730812072754	118.9575424194336	-168.6870269775391	879.847839355469	437.3056945800782	-42.51420593261724	481.8458862304689	416.4043273925782	-9.279367446899451	484.5829162597657	294.4097595214844	-79.76882171630866	456.0785522460939	410.6655578613282	-26.80911064147955	401.7231445312501	375.6228942871094	-327.4512939453126	203.0028686523438	356.2680969238281	-265.5085449218751	184.814437866211	284.2044982910156	-369.513885498047	189.524658203125	299.0420227050781	-234.5422668457032	57.85393142700197	310.7687072753906	-228.9313354492189	72.00451660156251	360.9925231933594	-285.7313842773439	92.9780960083008	400.8785095214844	-243.1683807373048	1506.620849609375	238.7760772705078	-297.8284912109376	1217.03515625	250.419662475586	-49.91132354736332	1251.95556640625	244.8821716308594	-101.4186172485352	1420.928588867188	241.1988220214844	-306.1146240234376	1293.439575195313	126.6262512207031	-281.2875366210938	1438.3046875	147.0475463867188	-205.5111846923829	1433.160522460938	51.42560577392577	-158.5555877685547	1435.14453125	46.62377929687499	-144.7383880615235	1132.790405273438	-47.01939010620119	-183.9963073730469	1106.617919921875	35.16471862792967	-185.5046539306641	1092.310668945313	-20.57172584533694	18.47323799133301	913.042175292969	-2.034618377685545	-25.56523895263672	897.692565917969	-65.42520904541017	73.42341613769533	841.8897705078127	-4.773162841796867	-10.74371433258056	818.4739990234377	-68.42205047607423	-303.7142028808595	1298.701171875	375.6294250488281	-273.5190734863282	1441.140625	344.0867004394531	-198.0422210693361	1434.410278320313	442.1304931640626	-146.2305908203126	1430.640014648438	449.9465332031251	-181.7208404541016	1131.008422851563	533.7474975585939	-240.1801300048829	1128.255249023438	460.6459960937501	-232.7702026367189	1109.334106445313	522.8605346679689	-100.5108184814454	871.005798339844	476.539276123047	-141.0417480468751	869.319030761719	543.5114135742189	-81.96337127685554	779.9341430664065	474.9005126953126	-149.7468872070313	802.6658935546877	553.4138793945314	
83	0.8200000000000001	-66.29020690917972	983.3848876953127	121.0447616577149	-261.7959594726563	1004.353149414063	209.5389404296875	-260.4449462890626	993.0002441406252	294.2354431152344	-80.56643676757818	976.0872802734377	386.1454162597657	-155.7181396484375	914.8233642578127	67.49988555908203	-151.2322387695313	471.0034179687501	105.368766784668	-174.0367126464844	482.4549560546876	243.4493103027344	-167.2931060791016	421.7461853027345	103.932487487793	-110.3305358886719	394.020965576172	165.4856414794922	-226.2060852050782	64.09262084960939	146.7705383300781	-207.0237121582032	79.08159637451173	242.7547302246094	-275.4779052734376	26.7558994293213	197.3407135009766	-81.04096221923832	18.23194122314453	229.3409576416016	-61.38727569580082	31.14142227172852	172.773193359375	-121.343017578125	18.30358505249024	119.1236419677735	-152.5605010986329	882.0317993164065	438.2847900390626	-17.67908477783208	485.5858764648439	415.4828491210939	14.15767192840573	489.1828918457032	293.4783630371094	-54.26091766357428	457.9491271972657	409.9126281738282	0.5373083949088593	406.0152282714845	374.5921630859376	-290.7555236816407	193.0543212890626	356.0113220214844	-228.5475463867188	178.2411041259766	283.3245849609376	-332.6199340820314	177.680648803711	298.6582946777344	-189.6823425292969	54.0902557373047	309.6254577636719	-184.5104980468751	68.94287872314455	359.5592651367188	-242.4754333496095	86.00238037109376	399.9569702148438	-229.049057006836	1507.288818359375	239.0376434326172	-283.7174377441407	1217.570922851563	249.957275390625	-35.82718276977543	1252.726684570313	244.8745422363282	-87.25596618652348	1421.641235351563	241.5395965576172	-291.3625793457032	1294.465942382813	125.853775024414	-267.0651245117188	1439.055786132813	146.9112091064453	-191.1322326660157	1434.294189453125	51.46816253662109	-143.9767761230469	1436.733520507813	47.02765274047851	-124.3365173339844	1135.033935546875	-48.01426696777347	-163.3043518066407	1107.71923828125	33.97227859497069	-164.0440521240235	1093.10205078125	-21.8962154388428	47.35831451416016	922.3596191406252	-1.159163236618036	3.65365982055665	904.457458496094	-64.2854461669922	105.1528854370117	853.6915283203127	-3.781545639038074	21.94762611389161	826.1322021484377	-66.63172912597658	-290.1081542968751	1299.68115234375	375.0078735351562	-259.350311279297	1441.828735351563	344.06005859375	-184.2129974365235	1435.11279296875	442.2646789550782	-132.4681243896485	1430.7890625	450.323211669922	-172.2040557861329	1131.388427734375	533.0023803710939	-230.4432830810548	1129.9072265625	459.7371826171876	-223.4744873046876	1110.869873046875	521.9703369140626	-97.02132415771493	869.2044677734377	476.5905151367189	-137.6226196289063	868.8781738281252	543.5618286132814	-81.5195617675782	777.4168701171877	475.0294799804689	-148.2003479003907	802.638366699219	553.6743774414064	
84	0.8300000000000001	-52.6376762390137	983.4927368164065	120.7372055053711	-247.686996459961	1004.692504882813	210.1828155517578	-246.2222747802735	993.3450317382815	295.0164489746094	-65.89570617675787	977.0837402343752	385.7446594238282	-142.7172393798828	915.1075439453127	67.82614898681641	-149.5819244384766	471.7828369140626	105.3646621704102	-171.4830780029297	483.5571594238282	243.7965393066407	-166.2267608642578	422.6675109863282	104.1471939086914	-109.2764053344727	394.273895263672	165.4538726806641	-226.0665130615235	64.94583129882814	147.36083984375	-206.3241271972657	80.00093841552736	243.1837158203125	-275.1423339843751	27.74183654785157	198.224365234375	-80.62902832031254	18.23582458496094	229.263168334961	-61.10067367553714	31.08118057250977	172.6414031982422	-121.3016662597657	18.49983406066895	119.3100738525391	-136.5236206054688	883.7132568359377	439.2098693847657	6.451163768768262	488.8156127929689	414.512664794922	36.67535400390622	493.2165527343751	292.4923706054688	-29.35280418396002	459.237518310547	409.1320190429689	27.31643486022945	409.9497070312501	373.4817199707032	-253.2324066162111	182.256332397461	355.8480834960938	-190.8712158203126	171.030990600586	282.4973449707032	-294.6758728027345	164.9945678710938	298.3966064453125	-144.1387939453126	50.19405364990236	308.5446777343751	-139.587127685547	65.57228088378908	358.2343444824219	-198.5004425048829	78.6976776123047	399.0999450683595	-214.8687133789063	1507.57958984375	239.3144073486328	-269.6268005371095	1217.732177734375	249.5597686767578	-21.7226428985596	1253.052856445313	244.9380798339844	-73.07217407226567	1421.924438476563	241.9281921386719	-276.5646057128907	1295.043823242188	125.1204223632812	-252.7796936035157	1439.413452148438	146.7882385253906	-176.7104034423828	1435.01123046875	51.52268981933593	-129.331787109375	1437.8896484375	47.44635772705077	-104.1805725097657	1137.044921875	-49.10881042480472	-142.8828582763672	1108.538696289063	32.67972564697265	-142.7713470458985	1093.629760742188	-23.28372192382815	75.66815185546876	931.7204589843752	-0.2044912427663711	32.54500198364259	911.2921142578127	-63.01970291137696	136.3383331298828	865.8071289062502	-2.660523653030379	54.3153991699219	834.0362548828127	-64.62161254882814	-276.5632324218751	1300.179809570313	374.2878723144531	-245.1892242431641	1442.130615234375	344.0371398925781	-170.4066314697266	1435.38623046875	442.4214477539064	-118.7399291992188	1430.526245117188	450.7315979003907	-162.6606445312501	1131.479614257813	532.4542846679689	-220.6902008056642	1131.161865234375	459.0365295410157	-214.1182250976564	1112.030639648438	521.2915039062501	-93.09049987792976	867.437194824219	476.6087341308595	-133.7444152832032	868.3057250976565	543.5675659179689	-80.38933563232429	775.0740966796877	475.0117492675782	-145.9922943115235	802.4973144531252	553.8021850585939	
